<?xml version="1.0" encoding="utf-8"?>
<!-- Generator: Adobe Illustrator 16.0.0, SVG Export Plug-In . SVG Version: 6.00 Build 0)  -->
<!DOCTYPE svg PUBLIC "-//W3C//DTD SVG 1.1//EN" "http://www.w3.org/Graphics/SVG/1.1/DTD/svg11.dtd">
<svg version="1.1" id="Layer_1" xmlns="http://www.w3.org/2000/svg" xmlns:xlink="http://www.w3.org/1999/xlink" x="0px" y="0px"
	 width="37.853px" height="40.062px" viewBox="0 0 37.853 40.062" enable-background="new 0 0 37.853 40.062" xml:space="preserve">
<g id="Bag">
	<polygon fill="none" points="10.596,9.532 7.221,9.721 4.061,11.851 10.295,11.851 	"/>
	<path fill="none" d="M21.848,20.816c0,0.285-0.23,0.517-0.517,0.517h-9.865c-0.284,0-0.516-0.232-0.516-0.517v-6.795H2.099v23.86
		H30.7v-23.86h-8.852V20.816z"/>
	<rect x="13.12" y="14.172" fill="none" width="6.56" height="4.992"/>
	<path fill="none" d="M23.218,9.703l0.25,2.148h7.838c0.036,0,0.071,0.009,0.106,0.011l3.048-2.007L23.218,9.703z"/>
	<path fill="none" d="M32.869,13.5v22.806c0.961-0.866,1.928-1.741,2.287-2.073c0.419-0.388,0.457-0.724,0.459-0.738l-0.342-21.578
		L32.869,13.5z"/>
	<rect x="13.12" y="14.172" fill="none" width="6.56" height="4.992"/>
	<polygon fill="none" points="10.596,9.532 7.221,9.721 4.061,11.851 10.295,11.851 	"/>
	<path fill="none" d="M21.848,20.816c0,0.285-0.23,0.517-0.517,0.517h-9.865c-0.284,0-0.516-0.232-0.516-0.517v-6.795H2.099v23.86
		H30.7v-23.86h-8.852V20.816z"/>
	<path fill="none" d="M23.218,9.703l0.25,2.148h7.838c0.036,0,0.071,0.009,0.106,0.011l3.048-2.007L23.218,9.703z"/>
	<path fill="none" d="M32.869,13.5v22.806c0.961-0.866,1.928-1.741,2.287-2.073c0.419-0.388,0.457-0.724,0.459-0.738l-0.342-21.578
		L32.869,13.5z"/>
	<rect x="13.12" y="14.172" fill="none" width="6.56" height="4.992"/>
	<polygon fill="none" points="10.596,9.532 7.221,9.721 4.061,11.851 10.295,11.851 	"/>
	<path fill="none" d="M32.869,13.5v22.806c0.961-0.866,1.928-1.741,2.287-2.073c0.419-0.388,0.457-0.724,0.459-0.738l-0.342-21.578
		L32.869,13.5z"/>
	<path fill="none" d="M21.848,20.816c0,0.285-0.23,0.517-0.517,0.517h-9.865c-0.284,0-0.516-0.232-0.516-0.517v-6.795H2.099v23.86
		H30.7v-23.86h-8.852V20.816z"/>
	<path fill="none" d="M23.218,9.703l0.25,2.148h7.838c0.036,0,0.071,0.009,0.106,0.011l3.048-2.007L23.218,9.703z"/>
	<path fill="#42413E" d="M13.807,4.825c-0.077,0.019-0.141,0.034-0.186,0.046c-1.129,0.494-2.048,1.375-2.557,2.497
		C10.507,7.404,9.95,7.437,9.393,7.475c-1.265,0.087-2.598-0.089-3.68,0.714L5.417,8.443L0.34,12.365
		c-0.253,0.277-0.411,0.643-0.411,1.048v25.075c0,0.862,0.699,1.562,1.562,1.562c0,0,27.533,0,28.527,0
		c0.993,0,1.581,0.246,3.5-1.409c1.186-1.036,2.645-2.385,3.11-2.813c1.098-1.015,1.154-2.08,1.154-2.301
		c0,0-0.393-24.904-0.393-24.905c-0.015-0.896-1.207-0.914-1.258-0.914L26.664,7.58l-0.296-2.53C26.37,2.238,24.13,0,21.38,0h-2.604
		c-2.396,0-4.461,1.691-4.854,3.963C13.886,4.178,13.807,4.825,13.807,4.825 M13.807,4.825 M16.326,3.593
		c0.166-0.703,1.396-1.424,2.451-1.424h2.604c1.555,0,2.82,1.265,2.82,2.819l0.28,2.561l-1.673-0.022
		C22.055,5.7,20.276,4.43,18.205,4.43h-1.908c-0.038,0-0.077,0-0.117,0.002C16.179,4.432,16.242,3.982,16.326,3.593z M12.756,9.561
		c0,0,0.153-1.782,0.466-2.068c0.515-0.546,1.24-0.894,2.049-0.894h0.489h1.955h0.489c0.809,0,1.533,0.347,2.049,0.894
		c0,0,0.708,1.352,0.799,2.181l0.239,2.178h-8.804L12.756,9.561z M19.679,14.172v4.992h-6.56v-4.992H19.679z M7.251,9.795
		c0.851-0.333,2.006-0.281,2.913-0.269c0.144,0.002,0.288,0.003,0.432,0.005l-0.301,2.319H4.061c0.144,0,0.567-0.409,0.725-0.507
		C5.605,10.828,6.339,10.152,7.251,9.795z M30.7,37.881H2.099v-23.86h8.852v6.795c0,0.285,0.231,0.517,0.516,0.517h9.865
		c0.286,0,0.517-0.232,0.517-0.517v-6.795H30.7V37.881z M31.306,11.851h-7.838l-0.25-2.148L34.46,9.854l-3.048,2.007
		C31.377,11.86,31.342,11.851,31.306,11.851z M35.156,34.233c-0.359,0.332-1.326,1.207-2.287,2.073V13.5l2.404-1.583l0.342,21.578
		C35.613,33.51,35.575,33.846,35.156,34.233z"/>
	<path fill="#F27242" d="M10.244,23.841h3.151l2.959,7.45l2.96-7.45h3.136V34.75h-2.355v-7.288l-2.931,7.288h-1.826l-2.914-7.244
		v7.244h-2.18V23.841z"/>
</g>
</svg>
