<?xml version="1.0" encoding="utf-8"?>
<!-- Generator: Adobe Illustrator 16.0.0, SVG Export Plug-In . SVG Version: 6.00 Build 0)  -->
<!DOCTYPE svg PUBLIC "-//W3C//DTD SVG 1.1//EN" "http://www.w3.org/Graphics/SVG/1.1/DTD/svg11.dtd">
<svg version="1.1" id="Layer_1" xmlns="http://www.w3.org/2000/svg" xmlns:xlink="http://www.w3.org/1999/xlink" x="0px" y="0px"
	 width="31.297px" height="40.078px" viewBox="0 0 31.297 40.078" enable-background="new 0 0 31.297 40.078" xml:space="preserve">
<g id="iPad_1_">
	<polygon id="Orange" fill="#F27242" points="2.87,36.912 27.469,3.078 2.87,3.078 	"/>
	<path id="iPad" fill="#42413E" d="M29.833,0H1.464C0.655,0,0,0.655,0,1.464v37.151c0,0.808,0.655,1.463,1.464,1.463h28.37
		c0.808,0,1.463-0.655,1.463-1.463V1.464C31.297,0.655,30.642,0,29.833,0z M15.613,39.219c-0.706,0-1.278-0.572-1.278-1.277
		c0-0.707,0.572-1.278,1.278-1.278s1.277,0.571,1.277,1.278C16.89,38.646,16.318,39.219,15.613,39.219z M27.469,34.787
		c0,0.621-0.504,1.125-1.125,1.125H4.953c-0.622,0-1.125-0.504-1.125-1.125V4.616c0-0.622,0.504-1.125,1.125-1.125h21.391
		c0.622,0,1.125,0.504,1.125,1.125V34.787z"/>
</g>
</svg>
